<svg width="1200" height="800" viewBox="0 0 1200 800" fill="none" xmlns="http://www.w3.org/2000/svg">
  <rect width="1200" height="800" rx="36" fill="#FCFCFB"/>
  <rect x="90" y="95" width="1020" height="610" rx="28" fill="#0F172A"/>
  <rect x="160" y="170" width="320" height="200" rx="24" fill="#F8FAF9"/>
  <rect x="200" y="208" width="170" height="16" rx="8" fill="#111827"/>
  <rect x="200" y="238" width="142" height="12" rx="6" fill="#64748B"/>
  <rect x="200" y="268" width="120" height="12" rx="6" fill="#64748B"/>
  <rect x="560" y="170" width="420" height="220" rx="24" fill="#111827" stroke="#10B981" stroke-opacity="0.2"/>
  <rect x="600" y="212" width="210" height="16" rx="8" fill="#F8FAF9"/>
  <rect x="600" y="244" width="160" height="12" rx="6" fill="#94A3B8"/>
  <rect x="600" y="272" width="190" height="12" rx="6" fill="#94A3B8"/>
  <rect x="160" y="430" width="820" height="180" rx="24" fill="#F8FAF9"/>
  <rect x="200" y="472" width="260" height="18" rx="9" fill="#07110D"/>
  <rect x="200" y="506" width="300" height="12" rx="6" fill="#64748B"/>
  <rect x="200" y="532" width="240" height="12" rx="6" fill="#64748B"/>
  <rect x="840" y="470" width="110" height="110" rx="20" fill="#10B981" fill-opacity="0.16"/>
  <path d="M884 522L910 485L936 522H908V548H900V522H884Z" fill="#10B981"/>
</svg>
